<?xml version="1.0" standalone="no"?><!DOCTYPE svg PUBLIC "-//W3C//DTD SVG 1.1//EN" "http://www.w3.org/Graphics/SVG/1.1/DTD/svg11.dtd"><svg t="1651742477349" class="icon" viewBox="0 0 1024 1024" version="1.1" xmlns="http://www.w3.org/2000/svg" p-id="953" xmlns:xlink="http://www.w3.org/1999/xlink" width="200" height="200"><defs><style type="text/css">@font-face { font-family: feedback-iconfont; src: url("//at.alicdn.com/t/font_1031158_u69w8yhxdu.woff2?t=1630033759944") format("woff2"), url("//at.alicdn.com/t/font_1031158_u69w8yhxdu.woff?t=1630033759944") format("woff"), url("//at.alicdn.com/t/font_1031158_u69w8yhxdu.ttf?t=1630033759944") format("truetype"); }
</style></defs><path d="M946.5856 512a114.0736 114.0736 0 0 0 29.9008-117.9648 115.3024 115.3024 0 0 0-94.208-79.0528l-161.9968-23.1424a32.768 32.768 0 0 1-24.576-17.408l-72.4992-145.408a115.5072 115.5072 0 0 0-104.2432-64.1024 115.712 115.712 0 0 0-104.2432 64.1024l-72.4992 144.5888a32.3584 32.3584 0 0 1-24.3712 17.408l-161.9968 23.1424A115.5072 115.5072 0 0 0 61.44 393.216 114.0736 114.0736 0 0 0 91.3408 512l117.3504 112.64a30.72 30.72 0 0 1 9.0112 27.4432l-27.648 158.1056a114.2784 114.2784 0 0 0 45.4656 112.4352 116.736 116.736 0 0 0 122.88 9.4208l144.7936-74.9568a32.5632 32.5632 0 0 1 30.72 0l144.7936 74.9568a116.5312 116.5312 0 0 0 122.88-9.4208 114.2784 114.2784 0 0 0 45.4656-112.4352l-26.8288-158.9248a30.72 30.72 0 0 1 9.216-27.4432z m-175.3088 51.2a114.688 114.688 0 0 0-33.792 102.4l27.648 158.9248a30.1056 30.1056 0 0 1-12.288 30.3104 32.9728 32.9728 0 0 1-35.0208 2.6624L573.44 782.5408a116.1216 116.1216 0 0 0-107.9296 0l-144.9984 74.9568a33.1776 33.1776 0 0 1-35.0208-2.6624 30.9248 30.9248 0 0 1-12.288-30.3104l27.648-158.9248a114.688 114.688 0 0 0-33.5872-102.4L149.504 450.56a29.696 29.696 0 0 1-7.9872-31.5392 31.1296 31.1296 0 0 1 26.2144-21.7088l161.9968-23.1424a116.9408 116.9408 0 0 0 87.6544-62.8736l72.4992-144.7936a31.3344 31.3344 0 0 1 29.0816-17.6128 31.744 31.744 0 0 1 29.2864 17.6128l72.2944 144.7936a117.76 117.76 0 0 0 87.6544 62.8736l161.9968 23.1424a31.5392 31.5392 0 0 1 26.4192 21.7088 30.3104 30.3104 0 0 1-8.192 31.5392z" p-id="954"></path></svg>